<svg xmlns="http://www.w3.org/2000/svg" width="18" height="18" fill="none" viewBox="0 0 18 18"><path fill="#808080" d="M2.25 2.25h4.03312c.14846-.00012.29546.02915.43255.08611.13709.05696.26155.14048.3662.24577L9 4.5h6.75c.2984 0 .5845.11853.7955.32951.211.21097.3295.49712.3295.79549v9c0 .2984-.1185.5845-.3295.7955-.211.211-.4971.3295-.7955.3295H2.25c-.29837 0-.58452-.1185-.7955-.3295-.21097-.211-.3295-.4971-.3295-.7955V3.375c0-.29837.11853-.58452.3295-.79549.21098-.21098.49713-.32951.7955-.32951Z"/><path fill="#808080" d="m6.28312 3.375 1.92375 1.91813.32625.33187H15.75v9H2.25V3.375h4.03312Zm0-1.125H2.25c-.29837 0-.58452.11853-.7955.32951-.21097.21097-.3295.49712-.3295.79549v11.25c0 .2984.11853.5845.3295.7955.21098.211.49713.3295.7955.3295h13.5c.2984 0 .5845-.1185.7955-.3295.211-.211.3295-.4971.3295-.7955v-9c0-.29837-.1185-.58452-.3295-.79549-.211-.21098-.4971-.32951-.7955-.32951H9L7.08187 2.58188c-.10465-.10529-.22911-.18881-.3662-.24577-.13709-.05696-.28409-.08623-.43255-.08611Z"/></svg>
