<svg width="18" height="16" viewBox="0 0 18 16" fill="#808080" xmlns="http://www.w3.org/2000/svg">
<path fill-rule="evenodd" clip-rule="evenodd" d="M11.3179 1.43816C11.4218 1.0372 11.1811 0.627892 10.7801 0.52394C10.3792 0.419988 9.96984 0.660759 9.86589 1.06172L6.36589 14.5617C6.26194 14.9627 6.50271 15.372 6.90366 15.4759C7.30462 15.5799 7.71393 15.3391 7.81788 14.9382L11.3179 1.43816ZM4.57991 3.93049C4.26541 3.66093 3.79194 3.69735 3.52237 4.01184L0.104004 7.99994L3.52237 11.988C3.79194 12.3025 4.26541 12.3389 4.57991 12.0694C4.8944 11.7998 4.93082 11.3263 4.66125 11.0118L2.07962 7.99994L4.66125 4.98803C4.93082 4.67354 4.8944 4.20006 4.57991 3.93049ZM13.1037 3.93049C13.4182 3.66093 13.8917 3.69735 14.1613 4.01184L17.5796 7.99994L14.1613 11.988C13.8917 12.3025 13.4182 12.3389 13.1037 12.0694C12.7893 11.7998 12.7528 11.3263 13.0224 11.0118L15.604 7.99994L13.0224 4.98803C12.7528 4.67354 12.7893 4.20006 13.1037 3.93049Z" fill="#808080"/>
</svg>
