<svg width="19" height="20" viewBox="0 0 19 20" fill="none" xmlns="http://www.w3.org/2000/svg">
<path fill-rule="evenodd" clip-rule="evenodd" d="M10.5645 1.5C10.5645 1.08579 10.2287 0.75 9.81445 0.75C9.40024 0.75 9.06445 1.08579 9.06445 1.5V2.26587C5.26627 2.50772 2.21177 5.48554 1.85028 9.25H1.06445C0.65024 9.25 0.314453 9.58579 0.314453 10C0.314453 10.4142 0.65024 10.75 1.06445 10.75H1.85028C2.2038 14.4315 5.13295 17.3607 8.81445 17.7142V18.5C8.81445 18.9142 9.15024 19.25 9.56445 19.25C9.97867 19.25 10.3145 18.9142 10.3145 18.5V17.7142C13.996 17.3607 16.9251 14.4315 17.2786 10.75H18.0645C18.4787 10.75 18.8145 10.4142 18.8145 10C18.8145 9.58579 18.4787 9.25 18.0645 9.25H17.2786C16.9331 5.65223 14.1279 2.77298 10.5645 2.31392V1.5ZM3.35899 9.25C3.71001 6.31488 6.09521 4.00474 9.06445 3.76971V4.5C9.06445 4.91421 9.40024 5.25 9.81445 5.25C10.2287 5.25 10.5645 4.91421 10.5645 4.5V3.82957C13.2981 4.26916 15.4388 6.48158 15.7699 9.25H15.0645C14.6502 9.25 14.3145 9.58579 14.3145 10C14.3145 10.4142 14.6502 10.75 15.0645 10.75H15.7699C15.4288 13.6023 13.1667 15.8644 10.3145 16.2055V15.5C10.3145 15.0858 9.97867 14.75 9.56445 14.75C9.15024 14.75 8.81445 15.0858 8.81445 15.5V16.2055C5.96218 15.8644 3.7001 13.6023 3.35899 10.75H4.06445C4.47867 10.75 4.81445 10.4142 4.81445 10C4.81445 9.58579 4.47867 9.25 4.06445 9.25H3.35899ZM9.56445 11.5C10.3929 11.5 11.0645 10.8284 11.0645 10C11.0645 9.17157 10.3929 8.5 9.56445 8.5C8.73603 8.5 8.06445 9.17157 8.06445 10C8.06445 10.8284 8.73603 11.5 9.56445 11.5Z" fill="#808080"/>
</svg>
