<svg width="18" height="18" viewBox="0 0 18 18" fill="none" xmlns="http://www.w3.org/2000/svg">
<path fill-rule="evenodd" clip-rule="evenodd" d="M15.1857 8.99919V9.42669L16.2489 10.3998C16.4451 10.5719 16.5754 10.8068 16.6175 11.0644C16.6596 11.3219 16.6108 11.5861 16.4795 11.8117L15.197 14.0617C15.0984 14.2325 14.9565 14.3745 14.7857 14.4732C14.6149 14.5719 14.4212 14.624 14.2239 14.6242C14.1016 14.6251 13.98 14.6061 13.8639 14.5679L12.5026 14.1067C12.2647 14.2635 12.0167 14.4045 11.7601 14.5286L11.4732 15.9461C11.4218 16.205 11.2809 16.4377 11.0753 16.6032C10.8696 16.7688 10.6122 16.8567 10.3482 16.8517H7.69325C7.42927 16.8567 7.17192 16.7688 6.96624 16.6032C6.76057 16.4377 6.61969 16.205 6.56825 15.9461L6.28137 14.5286C6.02666 14.4044 5.78049 14.2635 5.5445 14.1067L4.17762 14.5679C4.06148 14.6061 3.93988 14.6251 3.81763 14.6242C3.62034 14.624 3.42658 14.5719 3.25578 14.4732C3.08498 14.3745 2.94314 14.2325 2.8445 14.0617L1.517 11.8117C1.37969 11.5839 1.32752 11.3149 1.36974 11.0523C1.41196 10.7897 1.54584 10.5506 1.74762 10.3773L2.81075 9.43232V8.99919V8.57169L1.74762 7.59857C1.55138 7.42651 1.42106 7.19158 1.37899 6.93401C1.33692 6.67643 1.38571 6.41225 1.517 6.18669L2.8445 3.93669C2.94314 3.76584 3.08498 3.62393 3.25578 3.5252C3.42658 3.42647 3.62034 3.37439 3.81763 3.37419C3.93866 3.36596 4.06023 3.37735 4.17762 3.40794L5.51638 3.89169C5.7543 3.73484 6.00234 3.5939 6.25887 3.46982L6.54575 2.05232C6.59719 1.79334 6.73807 1.56071 6.94374 1.39515C7.14942 1.22958 7.40677 1.14163 7.67075 1.14669H10.3033C10.5672 1.14163 10.8246 1.22958 11.0303 1.39515C11.2359 1.56071 11.3768 1.79334 11.4282 2.05232L11.7151 3.46982C11.9698 3.59393 12.216 3.73487 12.452 3.89169L13.8189 3.43044C13.935 3.39225 14.0566 3.37325 14.1789 3.37419C14.3762 3.37439 14.5699 3.42647 14.7407 3.5252C14.9115 3.62393 15.0534 3.76584 15.152 3.93669L16.4795 6.18669C16.6188 6.41258 16.6737 6.68044 16.6346 6.94292C16.5955 7.20539 16.4648 7.44559 16.2657 7.62107L15.1857 8.56607V8.99919ZM12.2495 12.8467L14.1789 13.4992L15.5064 11.2492L13.9764 9.85982C14.0804 9.27755 14.0804 8.68146 13.9764 8.09919L15.5064 6.74919L14.1789 4.49919L12.2439 5.12919C11.7907 4.75183 11.2773 4.4533 10.7251 4.24607L10.3258 2.24919H7.67075L7.27138 4.26857C6.71484 4.47008 6.19865 4.76913 5.747 5.15169L3.81763 4.49919L2.49012 6.74919L4.02013 8.13857C3.91612 8.72083 3.91612 9.31692 4.02013 9.89919L2.49012 11.2492L3.81763 13.4992L5.75262 12.8692C6.20584 13.2465 6.71924 13.5451 7.27138 13.7523L7.67075 15.7492H10.3258L10.7251 13.7298C11.2817 13.5283 11.7978 13.2293 12.2495 12.8467ZM7.1232 11.8054C7.67821 12.1763 8.33073 12.3742 8.99825 12.3742C9.44271 12.3787 9.88361 12.2945 10.2951 12.1265C10.7066 11.9585 11.0805 11.7101 11.3948 11.3958C11.7091 11.0815 11.9575 10.7076 12.1255 10.2961C12.2935 9.8846 12.3778 9.4437 12.3732 8.99924C12.3732 8.33173 12.1753 7.6792 11.8045 7.12419C11.4336 6.56917 10.9065 6.13659 10.2898 5.88115C9.6731 5.6257 8.9945 5.55886 8.33982 5.68909C7.68513 5.81931 7.08376 6.14075 6.61176 6.61275C6.13976 7.08475 5.81832 7.68612 5.6881 8.34081C5.55787 8.99549 5.62471 9.67409 5.88015 10.2908C6.1356 10.9075 6.56818 11.4346 7.1232 11.8054ZM8.12908 6.9064C8.40519 6.79577 8.70088 6.74231 8.99825 6.74924C9.29561 6.74231 9.5913 6.79577 9.86741 6.9064C10.1435 7.01702 10.3943 7.1825 10.6047 7.39282C10.815 7.60315 10.9805 7.85396 11.0911 8.13007C11.2017 8.40619 11.2552 8.70187 11.2482 8.99924C11.2552 9.29661 11.2017 9.59229 11.0911 9.8684C10.9805 10.1445 10.815 10.3953 10.6047 10.6057C10.3943 10.816 10.1435 10.9815 9.86741 11.0921C9.5913 11.2027 9.29561 11.2562 8.99825 11.2492C8.70088 11.2562 8.40519 11.2027 8.12908 11.0921C7.85297 10.9815 7.60216 10.816 7.39183 10.6057C7.1815 10.3953 7.01602 10.1445 6.9054 9.8684C6.79478 9.59229 6.74132 9.29661 6.74825 8.99924C6.74132 8.70187 6.79478 8.40619 6.9054 8.13007C7.01602 7.85396 7.1815 7.60315 7.39183 7.39282C7.60216 7.1825 7.85297 7.01702 8.12908 6.9064Z" fill="#808080"/>
</svg>
