<svg xmlns="http://www.w3.org/2000/svg" width="22" height="22" fill="none" viewBox="0 0 22 22"><rect width="22" height="22" fill="#15803D" rx="4"/><path fill="#fff" d="m9.14 12 .04-2.53h-.1L7.4 13.78l-1.68-4.3h-.1l.04 2.51V16H4.48V7.62h1.64l1.28 3.33h.09l1.3-3.33h1.54V16H9.14v-4Zm5.39 4.14a3.55 3.55 0 0 1-3.06-1.4l.86-.83c.32.39.66.67 1.02.85.36.18.77.27 1.23.27.52 0 .93-.12 1.2-.36.3-.24.44-.59.44-1.03 0-.36-.1-.64-.31-.83-.21-.2-.57-.35-1.07-.43l-.91-.15c-.4-.06-.74-.17-1.01-.31a2.11 2.11 0 0 1-1.03-1.21c-.07-.26-.11-.53-.11-.8 0-.8.26-1.4.77-1.8a3.26 3.26 0 0 1 2.11-.63c.66 0 1.23.1 1.7.32.46.21.84.5 1.13.9l-.84.83c-.23-.28-.5-.5-.83-.67-.3-.18-.7-.26-1.16-.26-.5 0-.88.1-1.14.32-.26.2-.38.52-.38.92 0 .35.1.62.3.82.2.2.57.33 1.09.42l.89.16c.75.13 1.3.4 1.64.82.34.41.52.91.52 1.5 0 .39-.07.74-.2 1.06-.14.32-.33.6-.6.82-.25.22-.57.4-.96.52-.37.12-.8.18-1.3.18Z"/></svg>