<svg xmlns="http://www.w3.org/2000/svg" width="18" height="18" fill="none" viewBox="0 0 18 18"><mask id="a" width="18" height="19" x="0" y="-1" maskUnits="userSpaceOnUse" style="mask-type:luminance"><path fill="#fff" d="M18-.045H0v18h18v-18Z"/></mask><g fill="#808080" mask="url(#a)"><path d="M5.25 16.838a2.91 2.91 0 1 1-.016-5.82 2.91 2.91 0 0 1 .016 5.82Zm0-4.688a1.785 1.785 0 1 0 1.777 1.785A1.793 1.793 0 0 0 5.25 12.15ZM5.25 6.974a2.91 2.91 0 1 1-.015-5.82 2.91 2.91 0 0 1 .015 5.82Zm0-4.687a1.785 1.785 0 1 0 0 3.57 1.785 1.785 0 0 0 0-3.57ZM12.75 6.974a2.91 2.91 0 1 1 0-5.82 2.91 2.91 0 0 1 0 5.82Zm0-4.687a1.785 1.785 0 1 0 1.649 1.095 1.778 1.778 0 0 0-1.65-1.095Z"/><path d="M5.25 12.15a.554.554 0 0 1-.562-.563V6.412a.563.563 0 1 1 1.125 0v5.175a.563.563 0 0 1-.563.563Z"/><path d="M9.75 9.997h-4.5a.563.563 0 1 1 0-1.125h4.5a2.37 2.37 0 0 0 2.467-2.46.563.563 0 0 1 1.125 0A3.458 3.458 0 0 1 9.75 9.997Z"/></g></svg>