<svg xmlns="http://www.w3.org/2000/svg" width="18" height="18" fill="none" viewBox="0 0 18 18"><path fill="#808080" fill-rule="evenodd" d="M4.625 15.548A7.875 7.875 0 0 0 9 16.875 7.884 7.884 0 0 0 16.875 9a7.875 7.875 0 1 0-12.25 6.548Zm.625-12.16A6.75 6.75 0 0 1 9 2.25 6.758 6.758 0 0 1 15.75 9a6.75 6.75 0 1 1-10.5-5.612Zm7.254 1.69a.562.562 0 0 1 .405.725l-1.688 5.063a.563.563 0 0 1-.355.355L5.803 12.91a.562.562 0 0 1-.712-.712L6.78 7.135a.563.563 0 0 1 .356-.356l5.062-1.688a.562.562 0 0 1 .307-.013Zm-4.747 2.68-1.243 3.728 3.73-1.243-2.487-2.486Z" clip-rule="evenodd"/></svg>