<svg xmlns="http://www.w3.org/2000/svg" width="18" height="18" fill="none" viewBox="0 0 18 18"><path fill="#808080" d="M9 1.125A7.875 7.875 0 1 0 16.875 9 7.884 7.884 0 0 0 9 1.125ZM2.261 9.222l.753.25.924 1.386v.721c0 .15.059.293.164.398L5.625 13.5v1.337a6.747 6.747 0 0 1-3.364-5.615ZM9 15.75a6.73 6.73 0 0 1-1.447-.16l.322-.965 1.015-2.538a.562.562 0 0 0-.054-.52l-.794-1.191a.561.561 0 0 0-.468-.251H4.801l-.702-1.053 1.196-1.197h.893V9h1.125V7.462l2.175-3.808-.976-.558-.481.841H6.489l-.611-.916a6.672 6.672 0 0 1 5.372-.377V4.5a.563.563 0 0 0 .563.563h.823a.563.563 0 0 0 .469-.251l.493-.74a6.768 6.768 0 0 1 1.53 2.115h-2.292a.563.563 0 0 0-.551.453l-.406 2.515a.562.562 0 0 0 .303.592l1.88.94.386 2.282A6.739 6.739 0 0 1 9 15.75Z"/></svg>