<svg width="17" height="16" viewBox="0 0 17 16" fill="none" xmlns="http://www.w3.org/2000/svg">
<path fill-rule="evenodd" clip-rule="evenodd" d="M14.7345 12L14.7278 12L1.82116 12L1.77785 12L1.77784 12.05L1.77784 12.85C1.77784 13.2824 1.77842 13.5616 1.79578 13.7741C1.81243 13.9779 1.84069 14.0534 1.85958 14.0905C1.93149 14.2316 2.04622 14.3463 2.18734 14.4183C2.22443 14.4371 2.29997 14.4654 2.50372 14.4821C2.71622 14.4994 2.99542 14.5 3.42784 14.5L13.1278 14.5C13.5603 14.5 13.8395 14.4994 14.052 14.4821C14.2557 14.4654 14.3312 14.4371 14.3683 14.4183C14.5095 14.3463 14.6242 14.2316 14.6961 14.0905C14.715 14.0534 14.7432 13.9779 14.7599 13.7741C14.7773 13.5616 14.7778 13.2824 14.7778 12.85V12.05L14.7778 12L14.7345 12ZM13.2778 10.5V6.35C13.2778 5.35753 13.2773 4.65829 13.2326 4.11228C13.1888 3.57503 13.106 3.25252 12.9781 3.00153C12.7145 2.48408 12.2938 2.06338 11.7763 1.79973C11.5253 1.67184 11.2028 1.58909 10.6656 1.54519C10.1196 1.50058 9.42031 1.5 8.42784 1.5H8.12784C7.13538 1.5 6.43613 1.50058 5.89013 1.54519C5.35287 1.58909 5.03037 1.67184 4.77937 1.79973C4.26192 2.06338 3.84123 2.48408 3.57758 3.00153C3.44969 3.25252 3.36693 3.57503 3.32304 4.11228C3.27843 4.65829 3.27784 5.35753 3.27784 6.35L3.27784 10.5L13.2778 10.5ZM14.7778 10.5V6.31739V6.31737V6.31734C14.7779 5.36492 14.7779 4.60439 14.7277 3.99013C14.6762 3.36012 14.5682 2.81824 14.3146 2.32054C13.9072 1.52085 13.257 0.870684 12.4573 0.463222C11.9596 0.209633 11.4177 0.101649 10.7877 0.0501755C10.1735 -1.16701e-05 9.41291 -6.96819e-06 8.46047 1.76548e-07H8.09521C7.14278 -7.16665e-06 6.38224 -1.20015e-05 5.76798 0.0501751C5.13796 0.101649 4.59608 0.209632 4.09839 0.463222C3.2987 0.870683 2.64853 1.52085 2.24107 2.32054C1.98748 2.81824 1.87949 3.36012 1.82802 3.99013C1.77783 4.60439 1.77784 5.36493 1.77784 6.31737L1.77784 10.5C1.66419 10.5 1.54375 10.5007 1.43837 10.5093C1.30861 10.5199 1.13718 10.5461 0.960351 10.6362C0.725148 10.7561 0.533922 10.9473 0.41408 11.1825C0.323981 11.3593 0.297743 11.5308 0.287141 11.6605C0.277776 11.7751 0.277807 11.9076 0.277835 12.0297V12.0298L0.277839 12.8789C0.277825 13.2743 0.277812 13.6153 0.300765 13.8963C0.324991 14.1928 0.378477 14.4877 0.523074 14.7715C0.738789 15.1948 1.08299 15.539 1.50636 15.7548C1.79014 15.8994 2.08506 15.9528 2.38157 15.9771C2.6625 16 3.00357 16 3.39893 16L13.1567 16C13.5521 16 13.8932 16 14.1741 15.9771C14.4706 15.9528 14.7655 15.8994 15.0493 15.7548C15.4727 15.539 15.8169 15.1948 16.0326 14.7715C16.1772 14.4877 16.2307 14.1928 16.2549 13.8963C16.2779 13.6153 16.2779 13.2743 16.2778 12.8789V12.05L16.2778 12.0298C16.2779 11.9076 16.2779 11.7752 16.2685 11.6605C16.2579 11.5308 16.2317 11.3593 16.1416 11.1825C16.0218 10.9473 15.8305 10.7561 15.5953 10.6362C15.4185 10.5461 15.2471 10.5199 15.1173 10.5093C15.0119 10.5007 14.8915 10.5 14.7778 10.5ZM6.49692 6.53834H8.06908L7.24692 8.65998C7.12836 8.96596 7.45052 9.12527 7.65929 8.87998L10.2005 5.85304C10.2521 5.79235 10.2778 5.73166 10.2778 5.66591C10.2778 5.54959 10.1851 5.46361 10.0588 5.46361H8.48661L9.3062 3.33944C9.42475 3.03599 9.10259 2.87415 8.8964 3.11944L6.35259 6.14638C6.30104 6.2096 6.27784 6.26776 6.27784 6.33351C6.27784 6.45236 6.37063 6.53834 6.49692 6.53834Z" fill="#808080"/>
</svg>
