<svg width="32" height="33" viewBox="0 0 32 33" fill="#F97316" xmlns="http://www.w3.org/2000/svg">
<rect y="0.5" width="32" height="32" rx="10" />
<path fill-rule="evenodd" clip-rule="evenodd" d="M11.2132 12.9115C11.4559 12.6285 11.882 12.5957 12.165 12.8383C12.4481 13.0809 12.4809 13.507 12.2382 13.7901L9.91477 16.5008L12.2382 19.2115C12.4809 19.4946 12.4481 19.9207 12.165 20.1633C11.882 20.4059 11.4559 20.3731 11.2132 20.0901L8.13672 16.5008L11.2132 12.9115ZM20.7883 12.9115C20.5457 12.6285 20.1195 12.5957 19.8365 12.8383C19.5534 13.0809 19.5207 13.507 19.7633 13.7901L22.0867 16.5008L19.7633 19.2115C19.5207 19.4946 19.5534 19.9207 19.8365 20.1633C20.1195 20.4059 20.5457 20.3731 20.7883 20.0901L23.8648 16.5008L20.7883 12.9115Z" fill="white"/>
<path fill-rule="evenodd" clip-rule="evenodd" d="M17.7446 9.77177C18.1054 9.86532 18.3221 10.2337 18.2286 10.5946L15.0786 22.7446C14.985 23.1054 14.6166 23.3221 14.2558 23.2286C13.8949 23.135 13.6782 22.7666 13.7718 22.4058L16.9218 10.2558C17.0153 9.8949 17.3837 9.67821 17.7446 9.77177Z" fill="white"/>
</svg>
