<svg xmlns="http://www.w3.org/2000/svg" width="18" height="18" fill="none" viewBox="0 0 18 18"><path fill="#fff" fill-rule="evenodd" d="M3.375 2.25586h11.25c.2984 0 .5845.11853.7955.3295.211.21098.3295.49713.3295.7955V14.6309c0 .2983-.1185.5845-.3295.7955-.211.2109-.4971.3295-.7955.3295H3.375c-.29837 0-.58452-.1186-.7955-.3295-.21097-.211-.3295-.4972-.3295-.7955V3.38086c0-.29837.11853-.58452.3295-.7955.21098-.21097.49713-.3295.7955-.3295Zm11.25 3.375v-2.25H3.375v2.25h11.25Zm-11.25 1.125v7.87504h11.25V6.75586H3.375Zm4.26375 3.93764L6.0525 9.10163l.79312-.79313 2.385 2.385-2.385 2.385-.79312-.7931 1.58625-1.5919Z" clip-rule="evenodd"/></svg>