<svg width="18" height="18" viewBox="0 0 18 18" fill="none" xmlns="http://www.w3.org/2000/svg">
<path d="M16 15.2677L12.0892 11.3569C13.029 10.2288 13.4976 8.78171 13.3976 7.31682C13.2976 5.85193 12.6366 4.48199 11.5523 3.49198C10.468 2.50197 9.04371 1.96812 7.57579 2.00147C6.10787 2.03483 4.70932 2.63283 3.67108 3.67108C2.63283 4.70932 2.03483 6.10787 2.00147 7.57579C1.96812 9.04371 2.50197 10.468 3.49198 11.5523C4.48199 12.6366 5.85193 13.2976 7.31682 13.3976C8.78171 13.4976 10.2288 13.029 11.3569 12.0892L15.2677 16L16 15.2677ZM3.05401 7.71456C3.05401 6.79279 3.32734 5.89172 3.83945 5.1253C4.35156 4.35887 5.07944 3.76152 5.93105 3.40877C6.78265 3.05602 7.71973 2.96373 8.62379 3.14356C9.52785 3.32339 10.3583 3.76726 11.0101 4.41905C11.6619 5.07084 12.1057 5.90128 12.2856 6.80534C12.4654 7.70939 12.3731 8.64648 12.0204 9.49808C11.6676 10.3497 11.0703 11.0776 10.3038 11.5897C9.53741 12.1018 8.63634 12.3751 7.71456 12.3751C6.47893 12.3738 5.29429 11.8823 4.42057 11.0086C3.54684 10.1348 3.05538 8.9502 3.05401 7.71456Z" fill="white"/>
</svg>
