<svg xmlns="http://www.w3.org/2000/svg" width="16" height="16" fill="none" viewBox="0 0 16 16"><path fill="#fff" d="M12 6.5c.5304 0 1.0391-.21071 1.4142-.58579C13.7893 5.53914 14 5.03043 14 4.5V4c0-.53043-.2107-1.03914-.5858-1.41421C13.0391 2.21071 12.5304 2 12 2h-.5c-.5304 0-1.0391.21071-1.4142.58579C9.71071 2.96086 9.5 3.46957 9.5 4v1.5h-3V4c0-.53043-.21071-1.03914-.58579-1.41421C5.53914 2.21071 5.03043 2 4.5 2H4c-.53043 0-1.03914.21071-1.41421.58579C2.21071 2.96086 2 3.46957 2 4v.5c0 .53043.21071 1.03914.58579 1.41421C2.96086 6.28929 3.46957 6.5 4 6.5h1.5v3H4c-.53043 0-1.03914.21071-1.41421.5858C2.21071 10.4609 2 10.9696 2 11.5v.5c0 .5304.21071 1.0391.58579 1.4142C2.96086 13.7893 3.46957 14 4 14h.5c.53043 0 1.03914-.2107 1.41421-.5858C6.28929 13.0391 6.5 12.5304 6.5 12v-1.5h3V12c0 .5304.21071 1.0391.5858 1.4142.3751.3751.8838.5858 1.4142.5858h.5c.5304 0 1.0391-.2107 1.4142-.5858S14 12.5304 14 12v-.5c0-.5304-.2107-1.0391-.5858-1.4142C13.0391 9.71071 12.5304 9.5 12 9.5h-1.5v-3H12ZM10.5 4c0-.26522.1054-.51957.2929-.70711C10.9804 3.10536 11.2348 3 11.5 3h.5c.2652 0 .5196.10536.7071.29289C12.8946 3.48043 13 3.73478 13 4v.5c0 .26522-.1054.51957-.2929.70711C12.5196 5.39464 12.2652 5.5 12 5.5h-1.5V4ZM4 5.5c-.26522 0-.51957-.10536-.70711-.29289C3.10536 5.01957 3 4.76522 3 4.5V4c0-.26522.10536-.51957.29289-.70711C3.48043 3.10536 3.73478 3 4 3h.5c.26522 0 .51957.10536.70711.29289C5.39464 3.48043 5.5 3.73478 5.5 4v1.5H4ZM5.5 12c0 .2652-.10536.5196-.29289.7071C5.01957 12.8946 4.76522 13 4.5 13H4c-.26522 0-.51957-.1054-.70711-.2929C3.10536 12.5196 3 12.2652 3 12v-.5c0-.2652.10536-.5196.29289-.7071.18754-.1875.44189-.2929.70711-.2929h1.5V12Zm4-2.5h-3v-3h3v3Zm1 1H12c.2652 0 .5196.1054.7071.2929S13 11.2348 13 11.5v.5c0 .2652-.1054.5196-.2929.7071S12.2652 13 12 13h-.5c-.2652 0-.5196-.1054-.7071-.2929S10.5 12.2652 10.5 12v-1.5Z"/></svg>