<svg width="12" height="4" viewBox="0 0 12 4" fill="none" xmlns="http://www.w3.org/2000/svg">
<path d="M10.0008 0.800781C10.6635 0.800781 11.2008 1.33804 11.2008 2.00078C11.2008 2.66352 10.6635 3.20078 10.0008 3.20078C9.33804 3.20078 8.80078 2.66352 8.80078 2.00078C8.80078 1.33804 9.33804 0.800781 10.0008 0.800781ZM6.00078 0.800781C6.66352 0.800781 7.20078 1.33804 7.20078 2.00078C7.20078 2.66352 6.66352 3.20078 6.00078 3.20078C5.33804 3.20078 4.80078 2.66352 4.80078 2.00078C4.80078 1.33804 5.33804 0.800781 6.00078 0.800781ZM2.00078 0.800781C2.66352 0.800781 3.20078 1.33804 3.20078 2.00078C3.20078 2.66352 2.66352 3.20078 2.00078 3.20078C1.33804 3.20078 0.800781 2.66352 0.800781 2.00078C0.800781 1.33804 1.33804 0.800781 2.00078 0.800781Z" fill="#808080"/>
</svg>
