<svg width="18" height="18" viewBox="0 0 18 18" fill="none" xmlns="http://www.w3.org/2000/svg">
<path d="M15.9754 9.225C15.9754 13.0772 12.8526 16.2 9.00039 16.2C5.1482 16.2 2.02539 13.0772 2.02539 9.225C2.02539 5.37281 5.1482 2.25 9.00039 2.25C12.8526 2.25 15.9754 5.37281 15.9754 9.225Z" fill="#FBBF24"/>
<path d="M9.00039 6.075V9.225L11.7284 10.8M15.9754 9.225C15.9754 13.0772 12.8526 16.2 9.00039 16.2C5.1482 16.2 2.02539 13.0772 2.02539 9.225C2.02539 5.37281 5.1482 2.25 9.00039 2.25C12.8526 2.25 15.9754 5.37281 15.9754 9.225Z" stroke="#FBBF24" stroke-width="1.15" stroke-linecap="round"/>
<path d="M9 6.75V9.9L11.728 11.475" stroke="#FAFAFA" stroke-width="1.5" stroke-linecap="round"/>
</svg>
