<svg width="16" height="16" fill="none" xmlns="http://www.w3.org/2000/svg"><path d="M5.807.125a5.513 5.513 0 0 0-3.037.9l3.6 3.6a1.181 1.181 0 0 1 .112 1.688A1.181 1.181 0 0 1 4.795 6.2L1.082 2.6a5.535 5.535 0 0 0-.956 3.206 5.704 5.704 0 0 0 5.681 5.682 6.13 6.13 0 0 0 1.463-.17l3.768 3.77a2.824 2.824 0 1 0 3.994-3.994l-3.769-3.769a6.13 6.13 0 0 0 .17-1.462A5.626 5.626 0 0 0 5.806.125Zm4.5 5.681c0 .4-.058.798-.169 1.182l-.168.618.45.45 3.768 3.769a1.622 1.622 0 0 1 .507 1.181 1.53 1.53 0 0 1-.507 1.181 1.63 1.63 0 0 1-2.362 0L8.057 10.42l-.45-.45-.619.168a4.277 4.277 0 0 1-1.18.17A4.652 4.652 0 0 1 2.6 9.012a4.292 4.292 0 0 1-1.35-3.207c0-.418.057-.834.169-1.237l2.475 2.475a2.329 2.329 0 0 0 3.318.112 2.329 2.329 0 0 0-.112-3.318L4.626 1.363a3.628 3.628 0 0 1 1.125-.17 4.652 4.652 0 0 1 3.206 1.295 4.776 4.776 0 0 1 1.35 3.318Z" fill="#808080"/></svg>
