<svg xmlns="http://www.w3.org/2000/svg" width="16" height="16" fill="none" viewBox="0 0 16 16"><path fill="#808080" d="M6.05 1c-.96 0-1.9.27-2.7.8L6.55 5a1.05 1.05 0 0 1 .1 1.5 1.05 1.05 0 0 1-1.5-.1l-3.3-3.2a5.07 5.07 0 0 0 5.5 7.75l3.35 3.35a2.51 2.51 0 1 0 3.55-3.55L10.9 7.4a5.45 5.45 0 0 0-.2-3.24A5 5 0 0 0 6.05 1Zm4 5.05c0 .36-.05.7-.15 1.05l-.15.55.4.4 3.35 3.35a1.44 1.44 0 0 1 .45 1.05 1.36 1.36 0 0 1-.45 1.05 1.45 1.45 0 0 1-2.1 0l-3.35-3.35-.4-.4-.55.15a4.13 4.13 0 0 1-4.8-2.3 4.17 4.17 0 0 1-.15-2.65l2.2 2.2a2.07 2.07 0 0 0 2.95.1 2.07 2.07 0 0 0-.1-2.95L5 2.1c.32-.1.66-.15 1-.15 1.06 0 2.08.41 2.85 1.15.77.79 1.2 1.85 1.2 2.95Z"/></svg>
