<svg xmlns="http://www.w3.org/2000/svg" width="16" height="16" viewBox="0 0 16 16" fill="none"><path fill="#808080" d="M6 14.746H1.124a.998.998 0 0 1-.707-.295 1.01 1.01 0 0 1-.293-.71V2.258c0-.267.106-.523.293-.711a.998.998 0 0 1 .707-.295h4.874c.266 0 .52.106.707.295.188.188.293.444.293.71v11.484c0 .266-.105.522-.293.71a.998.998 0 0 1-.707.295ZM1.25 2.426v11.21H6V2.426H1.25ZM10 1.252h4.871a1.001 1.001 0 0 1 1 1v3.92a1.001 1.001 0 0 1-1 1H10a1.001 1.001 0 0 1-1-1v-3.92a1.001 1.001 0 0 1 1-1ZM14.75 6V2.42h-4.621V6h4.621ZM10 8.89h4.87a1.001 1.001 0 0 1 1 1l.001 3.856a1.002 1.002 0 0 1-1 1h-4.87a1.001 1.001 0 0 1-1-1L9 9.89a1.001 1.001 0 0 1 1-1Zm4.744 4.747V10H10.12v3.637h4.623Z"/></svg>
