<svg xmlns="http://www.w3.org/2000/svg" width="18" height="18" viewBox="0 0 18 18" fill="none"><path fill="#808080" fill-rule="evenodd" d="M4.625 2.452A7.875 7.875 0 0 1 9 1.125 7.884 7.884 0 0 1 16.875 9a7.875 7.875 0 1 1-12.25-6.548Zm1 11.61v.775a6.694 6.694 0 0 0 6.75 0v-.774a1.69 1.69 0 0 0-1.688-1.688H7.313a1.69 1.69 0 0 0-1.688 1.688Zm7.034-2.001c.525.518.826 1.222.837 1.96a6.75 6.75 0 1 0-8.992 0 2.813 2.813 0 0 1 2.809-2.771h3.375a2.814 2.814 0 0 1 1.97.81ZM7.437 4.974a2.812 2.812 0 1 1 3.126 4.677 2.812 2.812 0 0 1-3.126-4.677Zm.625 3.742A1.687 1.687 0 1 0 9.938 5.91a1.687 1.687 0 0 0-1.876 2.806Z" clip-rule="evenodd"/></svg>
