<svg xmlns="http://www.w3.org/2000/svg" width="18" height="18" viewBox="0 0 18 18" fill="none"><path fill="#808080" d="M16.148 10.852 14.625 9.33V7.312a5.633 5.633 0 0 0-5.063-5.596V.563H8.438v1.153a5.633 5.633 0 0 0-5.063 5.597V9.33l-1.523 1.522a.563.563 0 0 0-.165.398v1.688a.562.562 0 0 0 .563.562h3.938v.437a2.898 2.898 0 0 0 2.53 2.924 2.815 2.815 0 0 0 3.095-2.799V13.5h3.937a.562.562 0 0 0 .563-.563V11.25c0-.15-.06-.292-.165-.398Zm-5.46 3.21a1.687 1.687 0 1 1-3.376 0V13.5h3.375v.563Zm4.5-1.687H2.812v-.892L4.335 9.96a.563.563 0 0 0 .165-.398v-2.25a4.5 4.5 0 0 1 9 0v2.25c0 .15.06.293.165.398l1.523 1.523v.892Z"/></svg>
