<svg xmlns="http://www.w3.org/2000/svg" width="16" height="16" fill="none" viewBox="0 0 16 16"><path fill="#808080" fill-rule="evenodd" d="M4.11 2.18a7 7 0 1 1 7.78 11.64A7 7 0 0 1 4.1 2.18ZM5 12.5v.69a5.95 5.95 0 0 0 6 0v-.69A1.5 1.5 0 0 0 9.5 11h-3A1.5 1.5 0 0 0 5 12.5Zm6.25-1.78c.47.46.74 1.09.75 1.74a6 6 0 1 0-8 0A2.5 2.5 0 0 1 6.5 10h3c.66 0 1.29.26 1.75.72Zm-4.64-6.3A2.5 2.5 0 1 1 9.4 8.58 2.5 2.5 0 0 1 6.6 4.42Zm.56 3.33a1.5 1.5 0 1 0 1.66-2.5 1.5 1.5 0 0 0-1.66 2.5Z" clip-rule="evenodd"/></svg>
