<svg width="17" height="16" viewBox="0 0 17 16" fill="none" xmlns="http://www.w3.org/2000/svg">
<path fill-rule="evenodd" clip-rule="evenodd" d="M8.57184 1.56093C8.27037 1.47871 7.95239 1.47871 7.65092 1.56093C7.34502 1.64436 7.04228 1.86372 6.10431 2.60018L2.81698 5.18131C2.26116 5.61772 2.09137 5.7582 1.96959 5.91797C1.8286 6.10295 1.72589 6.31418 1.66747 6.53931C1.61702 6.73376 1.61138 6.95406 1.61138 7.66073V11.2507C1.61138 11.9632 1.61196 12.4524 1.64295 12.8317C1.67322 13.2022 1.72872 13.4012 1.80212 13.5452C1.96989 13.8745 2.23761 14.1422 2.56689 14.31C2.71093 14.3834 2.90996 14.4389 3.28046 14.4692C3.65971 14.5001 4.14894 14.5007 4.86138 14.5007H11.3614C12.0738 14.5007 12.563 14.5001 12.9423 14.4692C13.3128 14.4389 13.5118 14.3834 13.6559 14.31C13.9851 14.1422 14.2529 13.8745 14.4206 13.5452C14.494 13.4012 14.5495 13.2022 14.5798 12.8317C14.6108 12.4524 14.6114 11.9632 14.6114 11.2507V7.66073C14.6114 6.95406 14.6057 6.73376 14.5553 6.53931C14.4969 6.31418 14.3942 6.10295 14.2532 5.91797C14.1314 5.7582 13.9616 5.61772 13.4058 5.18131L10.1184 2.60018C9.18048 1.86372 8.87774 1.64436 8.57184 1.56093ZM7.25624 0.113787C7.81611 -0.0389054 8.40665 -0.0389054 8.96651 0.113787C9.6041 0.287675 10.16 0.724797 10.925 1.32629C10.9644 1.35723 11.0043 1.3886 11.0448 1.42039L14.3321 4.00152C14.3554 4.01982 14.3784 4.03786 14.4011 4.05567C14.8593 4.41511 15.1936 4.67733 15.4461 5.00865C15.708 5.35219 15.8987 5.74447 16.0072 6.16258C16.1118 6.56582 16.1117 6.99065 16.1114 7.57301C16.1114 7.60186 16.1114 7.63109 16.1114 7.66073V11.2822C16.1114 11.9555 16.1114 12.5062 16.0748 12.9538C16.037 13.4171 15.9562 13.8355 15.7571 14.2262C15.4456 14.8377 14.9484 15.3349 14.3368 15.6465C13.9461 15.8456 13.5277 15.9263 13.0644 15.9642C12.6169 16.0007 12.0662 16.0007 11.3928 16.0007H4.82994C4.15657 16.0007 3.60587 16.0007 3.15831 15.9642C2.69505 15.9263 2.27665 15.8456 1.88591 15.6465C1.27438 15.3349 0.777194 14.8377 0.465606 14.2262C0.266514 13.8355 0.185778 13.4171 0.147928 12.9538C0.111361 12.5062 0.111368 11.9555 0.111377 11.2821L0.111377 7.66073C0.111377 7.6311 0.111365 7.60187 0.111352 7.57302C0.111102 6.99066 0.110919 6.56582 0.215551 6.16258C0.324039 5.74447 0.514785 5.35219 0.776639 5.00865C1.02919 4.67733 1.36344 4.41511 1.82164 4.05567C1.84433 4.03786 1.86733 4.01982 1.89064 4.00152L5.17798 1.4204C5.21847 1.3886 5.25837 1.35723 5.29771 1.3263C6.06271 0.724799 6.61865 0.287675 7.25624 0.113787ZM5.36138 7.75073C5.36138 7.33652 5.69716 7.00073 6.11138 7.00073H10.1114C10.5256 7.00073 10.8614 7.33652 10.8614 7.75073C10.8614 8.16494 10.5256 8.50073 10.1114 8.50073H6.11138C5.69716 8.50073 5.36138 8.16494 5.36138 7.75073ZM5.36138 11.2507C5.36138 10.8365 5.69716 10.5007 6.11138 10.5007H10.1114C10.5256 10.5007 10.8614 10.8365 10.8614 11.2507C10.8614 11.6649 10.5256 12.0007 10.1114 12.0007H6.11138C5.69716 12.0007 5.36138 11.6649 5.36138 11.2507Z" fill="#808080"/>
</svg>
