<svg width="15" height="18" viewBox="0 0 15 18" fill="none" xmlns="http://www.w3.org/2000/svg">
<path fill-rule="evenodd" clip-rule="evenodd" d="M7.50886 1.99995H6.35879C5.36632 1.99995 4.66708 2.00054 4.12107 2.04515C3.58382 2.08904 3.26131 2.1718 3.01032 2.29969C2.49287 2.56334 2.07217 2.98403 1.80852 3.50148C1.68063 3.75247 1.59788 4.07498 1.55398 4.61224C1.50937 5.15824 1.50879 5.85749 1.50879 6.84995V11.15C1.50879 12.1424 1.50937 12.8417 1.55398 13.3877C1.59788 13.9249 1.68063 14.2474 1.80852 14.4984C2.07217 15.0159 2.49287 15.4366 3.01032 15.7002C3.26131 15.8281 3.58382 15.9109 4.12107 15.9548C4.66708 15.9994 5.36632 16 6.35879 16H7.75879C8.173 16 8.50879 16.3357 8.50879 16.75C8.50879 17.1642 8.173 17.5 7.75879 17.5H6.32616H6.32609C5.37369 17.5 4.61317 17.5 3.99892 17.4498C3.36891 17.3983 2.82703 17.2903 2.32933 17.0367C1.52964 16.6293 0.879473 15.9791 0.472012 15.1794C0.218423 14.6817 0.110439 14.1398 0.0589649 13.5098C0.00877759 12.8956 0.00878277 12.135 0.00878921 11.1826V6.81734C0.00878277 5.8649 0.00877759 5.10435 0.0589649 4.49009C0.110439 3.86007 0.218423 3.31819 0.472012 2.82049C0.879474 2.02081 1.52964 1.37064 2.32933 0.963177C2.82703 0.709587 3.36891 0.601604 3.99892 0.55013C4.61318 0.499942 5.37373 0.499948 6.32618 0.499954L8.26468 0.499954L8.32716 0.499916C8.63233 0.499632 8.90139 0.499381 9.16272 0.562122C9.3923 0.617239 9.61178 0.708149 9.81309 0.831514C10.0422 0.971941 10.2323 1.16237 10.4479 1.37836L10.4921 1.42257L14.0862 5.01668L14.1304 5.06083C14.3464 5.27642 14.5368 5.4665 14.6772 5.69565C14.8006 5.89697 14.8915 6.11644 14.9466 6.34602C15.0094 6.60735 15.0091 6.87641 15.0088 7.18158L15.0088 7.24407V10.25C15.0088 10.6642 14.673 11 14.2588 11C13.8446 11 13.5088 10.6642 13.5088 10.25V7.99988C12.7027 7.99931 12.0434 7.99426 11.4989 7.94978C10.8689 7.8983 10.327 7.79032 9.82933 7.53673C9.02964 7.12927 8.37947 6.4791 7.97201 5.67941C7.71842 5.18172 7.61044 4.63983 7.55896 4.00982C7.51448 3.46537 7.50943 2.80601 7.50886 1.99995ZM13.4103 6.49974C13.4064 6.4929 13.4024 6.48612 13.3983 6.4794C13.3627 6.42132 13.3102 6.36201 13.0255 6.07734L9.4314 2.48323C9.14673 2.19856 9.08743 2.14607 9.02934 2.11047C9.02262 2.10636 9.01584 2.10235 9.009 2.09845C9.01007 2.85929 9.01641 3.42783 9.05398 3.88767C9.09788 4.42493 9.18063 4.74743 9.30852 4.99843C9.57217 5.51587 9.99287 5.93657 10.5103 6.20022C10.7613 6.32811 11.0838 6.41087 11.6211 6.45476C12.0809 6.49233 12.6495 6.49867 13.4103 6.49974ZM3.50879 10.25C3.50879 9.83574 3.84458 9.49995 4.25879 9.49995H9.75879C10.173 9.49995 10.5088 9.83574 10.5088 10.25C10.5088 10.6642 10.173 11 9.75879 11H4.25879C3.84458 11 3.50879 10.6642 3.50879 10.25ZM3.50879 13.25C3.50879 12.8357 3.84458 12.5 4.25879 12.5H7.75879C8.173 12.5 8.50879 12.8357 8.50879 13.25C8.50879 13.6642 8.173 14 7.75879 14H4.25879C3.84458 14 3.50879 13.6642 3.50879 13.25ZM3.50879 7.24995C3.50879 6.83574 3.84458 6.49995 4.25879 6.49995H5.75879C6.173 6.49995 6.50879 6.83574 6.50879 7.24995C6.50879 7.66417 6.173 7.99995 5.75879 7.99995H4.25879C3.84458 7.99995 3.50879 7.66417 3.50879 7.24995ZM11.2588 13.8803V16.75C11.2588 17.1642 11.5946 17.5 12.0088 17.5C12.423 17.5 12.7588 17.1642 12.7588 16.75V13.8809L12.9203 14.0194C13.2348 14.289 13.7083 14.2525 13.9779 13.9381C14.2474 13.6236 14.211 13.1501 13.8965 12.8805L12.5115 11.6934C12.3785 11.5732 12.2022 11.5 12.0088 11.5C11.9829 11.5 11.9573 11.5013 11.9321 11.5038C11.8827 11.5088 11.8347 11.5187 11.7886 11.5328C11.6924 11.5622 11.6009 11.6115 11.5203 11.6805L10.1203 12.8805C9.80582 13.1501 9.7694 13.6236 10.039 13.9381C10.3085 14.2525 10.782 14.289 11.0965 14.0194L11.2588 13.8803Z" fill="#808080"/>
</svg>
