<svg width="21" height="20" viewBox="0 0 21 20" fill="none" xmlns="http://www.w3.org/2000/svg">
<path fill-rule="evenodd" clip-rule="evenodd" d="M9.11084 3.5C6.07327 3.5 3.61084 5.96243 3.61084 9C3.61084 12.0376 6.07327 14.5 9.11084 14.5C12.1484 14.5 14.6108 12.0376 14.6108 9C14.6108 5.96243 12.1484 3.5 9.11084 3.5ZM2.11084 9C2.11084 5.13401 5.24485 2 9.11084 2C12.9768 2 16.1108 5.13401 16.1108 9C16.1108 12.866 12.9768 16 9.11084 16C5.24485 16 2.11084 12.866 2.11084 9Z" fill="#808080"/>
<path fill-rule="evenodd" clip-rule="evenodd" d="M12.9999 12.8891C13.2928 12.5962 13.7677 12.5962 14.0606 12.8891L17.8911 16.7197C18.184 17.0126 18.184 17.4874 17.8911 17.7803C17.5982 18.0732 17.1234 18.0732 16.8305 17.7803L12.9999 13.9498C12.707 13.6569 12.7071 13.182 12.9999 12.8891Z" fill="#808080"/>
</svg>
