    <svg
      viewBox="0 0 20 18"
      fill="none"
      xmlns="http://www.w3.org/2000/svg"
    >
      <path d="M3.77699 13.196C3.4304 13.196 3.11222 13.1108 2.82244 12.9403C2.53267 12.767 2.30256 12.5369 2.1321 12.25C1.96165 11.9602 1.87642 11.642 1.87642 11.2955C1.87642 10.946 1.96165 10.6278 2.1321 10.3409C2.30256 10.0511 2.53267 9.8196 2.82244 9.64631C3.11222 9.47301 3.4304 9.38636 3.77699 9.38636H4.71449V7.87784H3.77699C3.4304 7.87784 3.11222 7.79261 2.82244 7.62216C2.53267 7.4517 2.30256 7.22301 2.1321 6.93608C1.96165 6.64631 1.87642 6.3267 1.87642 5.97727C1.87642 5.62784 1.96165 5.30966 2.1321 5.02273C2.30256 4.7358 2.53267 4.5071 2.82244 4.33665C3.11222 4.16335 3.4304 4.0767 3.77699 4.0767C4.12642 4.0767 4.4446 4.16335 4.73153 4.33665C5.02131 4.5071 5.25142 4.7358 5.42188 5.02273C5.59517 5.30966 5.68182 5.62784 5.68182 5.97727V6.90625H7.1946V5.97727C7.1946 5.62784 7.27983 5.30966 7.45028 5.02273C7.62074 4.7358 7.84943 4.5071 8.13636 4.33665C8.42614 4.16335 8.74574 4.0767 9.09517 4.0767C9.4446 4.0767 9.76278 4.16335 10.0497 4.33665C10.3366 4.5071 10.5653 4.7358 10.7358 5.02273C10.9063 5.30966 10.9915 5.62784 10.9915 5.97727C10.9915 6.3267 10.9063 6.64631 10.7358 6.93608C10.5653 7.22301 10.3366 7.4517 10.0497 7.62216C9.76278 7.79261 9.4446 7.87784 9.09517 7.87784H8.16193V9.38636H9.09517C9.4446 9.38636 9.76278 9.47301 10.0497 9.64631C10.3366 9.8196 10.5653 10.0511 10.7358 10.3409C10.9063 10.6278 10.9915 10.946 10.9915 11.2955C10.9915 11.642 10.9063 11.9602 10.7358 12.25C10.5653 12.5369 10.3366 12.767 10.0497 12.9403C9.76278 13.1108 9.4446 13.196 9.09517 13.196C8.74574 13.196 8.42614 13.1108 8.13636 12.9403C7.84943 12.767 7.62074 12.5369 7.45028 12.25C7.27983 11.9602 7.1946 11.642 7.1946 11.2955V10.358H5.68182V11.2955C5.68182 11.642 5.59517 11.9602 5.42188 12.25C5.25142 12.5369 5.02131 12.767 4.73153 12.9403C4.4446 13.1108 4.12642 13.196 3.77699 13.196ZM3.77699 12.2244C3.95028 12.2244 4.10653 12.1832 4.24574 12.1009C4.38778 12.0185 4.50142 11.9062 4.58665 11.7642C4.67188 11.6222 4.71449 11.4659 4.71449 11.2955V10.358H3.77699C3.60653 10.358 3.45028 10.4006 3.30824 10.4858C3.16619 10.5682 3.05256 10.6804 2.96733 10.8224C2.88494 10.9645 2.84375 11.1222 2.84375 11.2955C2.84375 11.4659 2.88494 11.6222 2.96733 11.7642C3.05256 11.9062 3.16619 12.0185 3.30824 12.1009C3.45028 12.1832 3.60653 12.2244 3.77699 12.2244ZM3.77699 6.90625H4.71449V5.97727C4.71449 5.80398 4.67188 5.64773 4.58665 5.50852C4.50142 5.36648 4.38778 5.25426 4.24574 5.17188C4.10653 5.08949 3.95028 5.0483 3.77699 5.0483C3.60653 5.0483 3.45028 5.08949 3.30824 5.17188C3.16619 5.25426 3.05256 5.36648 2.96733 5.50852C2.88494 5.64773 2.84375 5.80398 2.84375 5.97727C2.84375 6.15057 2.88494 6.30824 2.96733 6.45028C3.05256 6.58949 3.16619 6.70028 3.30824 6.78267C3.45028 6.86506 3.60653 6.90625 3.77699 6.90625ZM8.16193 6.90625H9.09517C9.26847 6.90625 9.42472 6.86506 9.56392 6.78267C9.70313 6.70028 9.81392 6.58949 9.89631 6.45028C9.98153 6.30824 10.0241 6.15057 10.0241 5.97727C10.0241 5.80398 9.98153 5.64773 9.89631 5.50852C9.81392 5.36648 9.70313 5.25426 9.56392 5.17188C9.42472 5.08949 9.26847 5.0483 9.09517 5.0483C8.92188 5.0483 8.7642 5.08949 8.62216 5.17188C8.48011 5.25426 8.3679 5.36648 8.28551 5.50852C8.20312 5.64773 8.16193 5.80398 8.16193 5.97727V6.90625ZM9.09517 12.2244C9.26847 12.2244 9.42472 12.1832 9.56392 12.1009C9.70313 12.0185 9.81392 11.9062 9.89631 11.7642C9.98153 11.6222 10.0241 11.4659 10.0241 11.2955C10.0241 11.1222 9.98153 10.9645 9.89631 10.8224C9.81392 10.6804 9.70313 10.5682 9.56392 10.4858C9.42472 10.4006 9.26847 10.358 9.09517 10.358H8.16193V11.2955C8.16193 11.4659 8.20312 11.6222 8.28551 11.7642C8.3679 11.9062 8.48011 12.0185 8.62216 12.1009C8.7642 12.1832 8.92188 12.2244 9.09517 12.2244ZM5.68182 9.38636H7.1946V7.87784H5.68182V9.38636ZM13.3299 13V4.27273H18.7418V5.40625H14.6467V8.06534H18.354V9.1946H14.6467V13H13.3299Z" />
    </svg>