<svg width="18" height="18" viewBox="0 0 18 18" fill="none" xmlns="http://www.w3.org/2000/svg">
<path fill-rule="evenodd" clip-rule="evenodd" d="M8.01691 1.19158L8.66462 1.90709C8.72225 1.97109 8.78983 2.02034 8.86734 2.05486C8.94481 2.08935 9.02596 2.10659 9.11077 2.10659C9.19559 2.10659 9.27679 2.08933 9.35435 2.05481C9.43176 2.02033 9.49886 1.97156 9.55565 1.90851L10.2104 1.18982C10.5067 0.861789 10.8714 0.648962 11.3045 0.551337C11.7378 0.453706 12.1595 0.489918 12.5697 0.659975C12.98 0.829995 13.3038 1.1028 13.541 1.47838C13.7782 1.85392 13.8855 2.26353 13.8628 2.70722L13.814 3.672C13.8098 3.75634 13.8228 3.83801 13.8532 3.91702C13.8836 3.9961 13.9286 4.0656 13.9884 4.1255C14.0483 4.18545 14.1177 4.23067 14.1966 4.26115C14.2756 4.2917 14.3574 4.3049 14.4419 4.30077L15.4051 4.25189C15.8491 4.23001 16.2585 4.33786 16.6333 4.57542C17.008 4.81292 17.2802 5.13676 17.4498 5.54694C17.6194 5.95727 17.6553 6.37892 17.5576 6.8119C17.46 7.24498 17.2465 7.61033 16.9173 7.90794L16.1989 8.55629C16.1361 8.61308 16.0874 8.68028 16.0529 8.75789C16.0184 8.83572 16.0011 8.91708 16.0011 9.00198C16.0011 9.08695 16.0184 9.16834 16.0529 9.24615C16.0874 9.32377 16.1361 9.39097 16.199 9.44775L16.9169 10.0957C17.2468 10.394 17.4605 10.7598 17.5579 11.193C17.6555 11.6262 17.6194 12.0481 17.4494 12.4585C17.2794 12.869 17.0066 13.1929 16.6311 13.4301C16.2559 13.6674 15.8464 13.7747 15.4028 13.7521L14.4384 13.7032C14.3533 13.6988 14.2712 13.7119 14.1921 13.7423C14.1128 13.7728 14.0432 13.818 13.9832 13.878C13.9232 13.938 13.878 14.0076 13.8476 14.0868C13.8172 14.1661 13.8041 14.2481 13.8084 14.3329L13.8573 15.2984C13.8773 15.7425 13.7687 16.151 13.5316 16.5239C13.2944 16.8967 12.9719 17.1677 12.564 17.3368C12.1562 17.506 11.7366 17.5427 11.3053 17.4469C10.8743 17.3514 10.5097 17.1407 10.2115 16.8148L9.55995 16.0937C9.50285 16.0305 9.43552 15.9816 9.35797 15.9471C9.28038 15.9127 9.19912 15.8954 9.11422 15.8954C9.0293 15.8954 8.94816 15.9126 8.87078 15.947C8.79302 15.9816 8.72568 16.0304 8.66876 16.0934L8.01631 16.8124C7.71807 17.1403 7.35315 17.3526 6.92154 17.4492C6.48986 17.546 6.06957 17.5098 5.66068 17.3407C5.25191 17.1717 4.92876 16.9005 4.69122 16.527C4.45372 16.1534 4.34511 15.7456 4.36537 15.3034L4.41519 14.3342C4.41955 14.2495 4.40651 14.1675 4.37608 14.0883C4.34564 14.0091 4.3004 13.9394 4.24037 13.8793C4.18045 13.8194 4.11086 13.7742 4.03159 13.7437C3.95243 13.7133 3.87048 13.7002 3.78573 13.7046L2.82051 13.7535C2.37774 13.7766 1.9686 13.6697 1.59309 13.4329C1.21749 13.1961 0.944491 12.8727 0.774107 12.4625C0.603707 12.0523 0.567091 11.6305 0.664257 11.1971C0.761424 10.7637 0.974601 10.398 1.30379 10.0999L2.02174 9.45142C2.08472 9.3945 2.13346 9.32719 2.16797 9.24949C2.20248 9.17178 2.21974 9.09044 2.21974 9.00548C2.21974 8.92048 2.20248 8.83914 2.16798 8.76145C2.13348 8.68377 2.0847 8.61644 2.02164 8.55945L1.30296 7.90679C0.97502 7.60922 0.762523 7.24425 0.665466 6.81188C0.5684 6.37956 0.604532 5.95867 0.773862 5.54919C0.943171 5.13975 1.21483 4.81633 1.58885 4.57892C1.96284 4.34152 2.37107 4.2334 2.81353 4.25455L3.78038 4.30359C3.8662 4.30812 3.94879 4.29513 4.02814 4.26464C4.1075 4.23415 4.17723 4.18882 4.23732 4.12865C4.2974 4.06849 4.34264 3.9987 4.37304 3.91928C4.40344 3.83986 4.41637 3.7577 4.41182 3.6728L4.36544 2.70277C4.34468 2.25998 4.45293 1.85167 4.6902 1.47785C4.92747 1.10401 5.25061 0.832405 5.6596 0.663029C6.06861 0.493647 6.48909 0.457298 6.92106 0.553982C7.35302 0.650651 7.71794 0.862774 8.0158 1.19035L8.01691 1.19158ZM6.9066 2.19968L6.90548 2.19845C6.82055 2.10553 6.71661 2.04531 6.59367 2.01779C6.47021 1.99016 6.35002 2.00055 6.23312 2.04896C6.11621 2.09738 6.02385 2.17501 5.95603 2.28186C5.88822 2.38872 5.85726 2.50514 5.86317 2.63112L5.90911 3.59253C5.92504 3.8899 5.87978 4.17762 5.77332 4.45569C5.66687 4.73377 5.50846 4.97814 5.29809 5.18879C5.08772 5.39946 4.8436 5.55817 4.56575 5.66491C4.28787 5.77167 4.00077 5.81726 3.70444 5.80167L2.74196 5.75284C2.61558 5.7468 2.499 5.77768 2.3922 5.84547C2.28536 5.91328 2.20777 6.00565 2.15942 6.12259C2.11106 6.23953 2.10074 6.35974 2.12847 6.48322C2.15618 6.6067 2.21696 6.71101 2.3108 6.79616L3.0267 7.4463C3.24715 7.6455 3.41767 7.88086 3.53826 8.1524C3.65886 8.42397 3.71917 8.70833 3.71917 9.00548C3.71917 9.30259 3.65887 9.58692 3.53827 9.85847C3.41769 10.13 3.24713 10.3654 3.0266 10.5647L2.30998 11.212C2.21597 11.2972 2.15509 11.4016 2.12734 11.5254C2.09958 11.6492 2.11004 11.7696 2.15871 11.8868C2.20737 12.004 2.28535 12.0964 2.39267 12.164C2.49986 12.2316 2.61718 12.2621 2.74462 12.2554L3.70875 12.2065C4.00545 12.1913 4.29243 12.237 4.56969 12.3436C4.84704 12.4503 5.09071 12.6087 5.30071 12.8188C5.5108 13.029 5.66911 13.2728 5.77564 13.55C5.88224 13.8274 5.92791 14.1145 5.91264 14.4113L5.86323 15.3721C5.85744 15.4985 5.88846 15.6151 5.95629 15.7217C6.02424 15.8286 6.11661 15.9062 6.23342 15.9544C6.35034 16.0028 6.4705 16.0131 6.59389 15.9855C6.71725 15.9579 6.82131 15.8975 6.90608 15.8043L7.55594 15.0881C7.75502 14.8676 7.99015 14.6971 8.26132 14.5765C8.53269 14.4558 8.81698 14.3954 9.11422 14.3954C9.41137 14.3954 9.69558 14.4558 9.96686 14.5764C10.2381 14.697 10.4732 14.8674 10.6723 15.0878L11.3175 15.8019C11.4027 15.895 11.5069 15.9552 11.6303 15.9826C11.7535 16.01 11.8734 15.9995 11.9898 15.9511C12.1065 15.9028 12.1987 15.8254 12.2663 15.719C12.3342 15.6123 12.3654 15.4974 12.3598 15.3743L12.311 14.4099C12.2958 14.113 12.3414 13.8259 12.448 13.5487C12.5546 13.2713 12.7129 13.0275 12.9229 12.8173C13.133 12.6072 13.3767 12.4488 13.6539 12.3422C13.9311 12.2356 14.2179 12.1899 14.5143 12.2051L15.4792 12.254C15.606 12.2605 15.7231 12.2298 15.8303 12.162C15.9376 12.0942 16.0155 12.0017 16.0641 11.8844C16.1127 11.7671 16.1231 11.6464 16.0951 11.5223C16.0673 11.3987 16.0064 11.2944 15.9124 11.2094L15.1945 10.5614C14.9739 10.3623 14.8033 10.1268 14.6826 9.85499C14.562 9.58336 14.5017 9.29902 14.5017 9.00198C14.5017 8.705 14.562 8.42069 14.6826 8.14906C14.8032 7.87738 14.9739 7.64188 15.1945 7.44256L15.912 6.79501C16.0061 6.70999 16.0671 6.60559 16.0949 6.48181C16.1229 6.35799 16.1126 6.23751 16.0642 6.12038C16.0157 6.00303 15.9379 5.91041 15.8308 5.84251C15.7237 5.77461 15.6071 5.74376 15.4811 5.74997L14.5151 5.79899C14.2191 5.81345 13.9328 5.76727 13.6564 5.66043C13.38 5.55362 13.137 5.39529 12.9275 5.18544C12.7179 4.97551 12.56 4.73227 12.4538 4.45573C12.3473 4.17889 12.3015 3.89234 12.3164 3.59609L12.3653 2.63081C12.3718 2.50399 12.3412 2.38693 12.2734 2.27961C12.2056 2.17229 12.1131 2.09432 11.9957 2.04569C11.8785 1.9971 11.7579 1.98675 11.6341 2.01465C11.5103 2.04255 11.4052 2.10441 11.3186 2.20021L10.6696 2.91253C10.4707 3.13338 10.2355 3.3043 9.96389 3.42528C9.69232 3.54616 9.40794 3.60659 9.11077 3.60659C8.81356 3.60659 8.52917 3.54614 8.25759 3.42523C7.98603 3.30431 7.75124 3.13389 7.55319 2.91396L6.9066 2.19968ZM7.11133 9C7.11133 7.89543 8.00676 7 9.11133 7C10.2159 7 11.1113 7.89543 11.1113 9C11.1113 10.1046 10.2159 11 9.11133 11C8.00676 11 7.11133 10.1046 7.11133 9ZM9.11133 5.5C7.17833 5.5 5.61133 7.067 5.61133 9C5.61133 10.933 7.17833 12.5 9.11133 12.5C11.0443 12.5 12.6113 10.933 12.6113 9C12.6113 7.067 11.0443 5.5 9.11133 5.5Z" fill="#808080"/>
</svg>
